<?xml version="1.0" standalone="no"?>
<!DOCTYPE svg PUBLIC "-//W3C//DTD SVG 20010904//EN"
 "http://www.w3.org/TR/2001/REC-SVG-20010904/DTD/svg10.dtd">
<svg version="1.0" xmlns="http://www.w3.org/2000/svg"
 width="500.000000pt" height="500.000000pt" viewBox="0 0 500.000000 500.000000"
 preserveAspectRatio="xMidYMid meet">

<g transform="translate(0.000000,500.000000) scale(0.100000,-0.100000)"
fill="#000000" stroke="none">
<path d="M2928 4379 c-414 -33 -832 -274 -1381 -798 -66 -63 -112 -111 -103
-108 10 4 16 1 16 -6 0 -14 217 -130 309 -167 79 -31 101 -26 556 129 99 34
230 75 290 92 61 18 114 35 119 39 12 11 -183 368 -310 568 l-34 52 33 15
c392 172 739 185 1174 43 145 -47 339 -143 454 -223 153 -109 317 -280 430
-450 254 -383 347 -808 264 -1210 -67 -329 -235 -605 -480 -790 -124 -94 -399
-213 -638 -275 -48 -13 -86 -25 -83 -27 7 -7 194 38 318 78 151 48 357 148
449 218 139 106 284 287 363 454 49 103 101 265 122 379 27 144 25 411 -4 554
-104 520 -439 981 -883 1216 -308 164 -660 242 -981 217z"/>
<path d="M2430 4157 c0 -40 351 -597 376 -597 10 0 -81 163 -168 301 -84 134
-208 310 -208 296z"/>
<path d="M2950 3469 c-136 -16 -302 -50 -595 -119 -526 -124 -522 -123 -591
-117 -64 5 -153 41 -251 102 -67 41 -51 22 20 -23 90 -59 171 -92 241 -98 61
-6 217 24 726 140 318 73 443 90 680 90 226 1 305 -5 428 -30 257 -53 473
-146 685 -293 115 -81 340 -303 392 -388 40 -67 62 -88 25 -25 -103 176 -309
379 -510 504 -174 109 -414 200 -627 239 -133 25 -488 35 -623 18z"/>
<path d="M3978 2990 c-15 -393 -94 -621 -324 -940 -208 -288 -270 -369 -323
-425 -32 -33 -66 -71 -75 -85 -20 -30 -20 -87 0 -120 11 -18 13 -19 9 -5 -14
45 -16 74 -6 92 9 19 16 14 91 -58 145 -139 199 -147 441 -66 211 70 353 145
454 238 l45 41 -38 52 c-20 28 -124 163 -230 299 l-194 248 21 35 c29 49 85
187 104 259 31 113 47 249 46 385 -1 223 -14 252 -21 50z"/>
<path d="M2383 2935 c-53 -23 -63 -56 -63 -210 l0 -135 40 0 40 0 0 121 c0 66
5 129 10 140 16 28 49 24 61 -8 13 -36 5 -53 -26 -53 -23 0 -25 -4 -25 -40 0
-38 2 -40 30 -40 l30 0 0 -60 0 -60 40 0 40 0 0 136 c0 153 -9 182 -66 209
-39 18 -69 19 -111 0z"/>
<path d="M1840 2765 l0 -175 45 0 45 0 0 136 0 136 28 -7 c91 -22 102 -143 15
-176 -19 -7 -23 -16 -23 -49 0 -48 14 -51 80 -17 68 34 85 65 85 150 0 59 -4
78 -23 104 -34 48 -95 73 -180 73 l-72 0 0 -175z"/>
<path d="M2170 2765 l0 -175 45 0 45 0 0 175 0 175 -45 0 -45 0 0 -175z"/>
<path d="M2647 2920 c-31 -25 -43 -72 -27 -110 7 -16 37 -48 67 -70 30 -23 52
-47 50 -53 -2 -7 -29 -13 -65 -15 l-62 -3 0 -39 0 -40 65 0 c105 0 155 31 155
95 0 41 -25 77 -79 115 -67 46 -66 60 4 60 l55 0 0 40 0 40 -69 0 c-53 0 -74
-4 -94 -20z"/>
<path d="M2715 2506 c-52 -16 -128 -55 -240 -122 -138 -82 -185 -133 -129
-142 15 -3 16 -1 4 7 -12 8 -11 14 10 36 63 67 330 212 400 217 35 3 35 3 34
-37 0 -27 -20 -81 -63 -170 -52 -110 -72 -140 -129 -198 -43 -44 -89 -78 -128
-97 -80 -39 -134 -97 -134 -146 0 -19 5 -45 11 -57 6 -12 74 -83 151 -158 99
-94 139 -139 133 -148 -14 -24 -185 3 -185 29 0 9 31 36 50 43 10 4 8 6 -6 6
-12 1 -32 -8 -45 -18 -20 -16 -22 -23 -13 -38 23 -37 188 -60 213 -29 18 22
-2 47 -133 165 -64 56 -125 118 -136 136 -26 43 -26 95 2 130 20 26 103 85
119 85 4 0 -6 -24 -21 -52 -33 -61 -64 -163 -55 -178 13 -22 43 13 118 138
l78 130 56 11 c31 6 60 11 63 11 4 0 5 -20 3 -44 -4 -35 -1 -48 16 -65 11 -11
33 -21 49 -21 30 0 72 25 72 42 0 6 -10 2 -23 -10 -48 -45 -105 -12 -94 54 4
21 11 40 17 44 6 4 64 6 128 5 64 -2 135 1 157 5 22 4 32 8 22 9 -11 1 -15 6
-11 12 5 8 1 8 -14 0 -32 -17 -65 -14 -58 5 3 9 6 18 6 20 0 2 5 4 11 4 5 0 7
-5 3 -11 -4 -7 -1 -10 6 -7 8 2 16 10 18 16 6 20 -43 14 -63 -8 -18 -20 -75
-28 -75 -10 0 5 11 34 24 64 20 45 29 55 53 59 l28 4 -28 2 c-25 1 -27 3 -17
22 6 11 9 25 7 32 -2 7 -11 -3 -21 -20 -11 -21 -24 -33 -39 -34 -17 -1 -18 -2
-4 -6 21 -6 21 -12 1 -65 -25 -66 -81 -107 -69 -50 6 26 6 26 -9 8 -9 -11 -16
-23 -16 -28 0 -4 -9 -8 -20 -8 -13 0 -20 7 -20 18 0 28 -21 42 -64 42 l-41 1
30 25 c56 47 200 138 303 192 191 100 294 132 457 142 l110 7 -88 1 c-203 4
-433 -83 -700 -265 -43 -29 -80 -53 -82 -53 -2 0 21 51 51 113 94 193 84 243
-41 203z m40 -406 c0 -22 -6 -25 -60 -36 -33 -7 -61 -11 -63 -9 -2 1 7 19 19
39 20 34 25 37 63 34 36 -3 41 -6 41 -28z m-139 -29 c-14 -26 -56 -50 -56 -31
0 7 59 60 68 60 1 0 -4 -13 -12 -29z m-37 -63 c-27 -52 -114 -190 -122 -195
-15 -9 1 44 36 121 24 52 39 72 62 82 16 7 31 13 33 14 1 0 -3 -10 -9 -22z"/>
<path d="M3588 2493 c6 -2 18 -2 25 0 6 3 1 5 -13 5 -14 0 -19 -2 -12 -5z"/>
<path d="M2239 2391 c-51 -38 -72 -49 -90 -44 -20 5 -22 3 -12 -8 10 -10 9
-16 -4 -31 -9 -10 -22 -18 -30 -18 -7 0 -13 -4 -13 -10 0 -16 33 -12 60 7 23
16 23 16 16 -3 -19 -46 -14 -55 6 -12 13 26 49 75 82 108 32 33 57 60 54 60
-2 0 -33 -22 -69 -49z"/>
<path d="M3879 2247 c50 -90 406 -535 419 -522 11 11 -283 394 -393 510 -46
49 -46 49 -26 12z"/>
<path d="M2433 2243 c15 -2 39 -2 55 0 15 2 2 4 -28 4 -30 0 -43 -2 -27 -4z"/>
<path d="M1879 2223 c-13 -16 -12 -17 4 -4 9 7 17 15 17 17 0 8 -8 3 -21 -13z"/>
<path d="M1607 2197 c-15 -7 -33 -23 -40 -37 -7 -14 -21 -26 -32 -28 -32 -6
-56 -33 -83 -92 -23 -51 -24 -66 -25 -220 0 -91 4 -173 8 -182 8 -21 0 -48
-15 -48 -5 0 -10 6 -10 14 0 8 -4 18 -10 21 -5 3 -10 -4 -10 -15 0 -13 8 -24
20 -27 13 -3 22 -17 26 -39 8 -42 39 -74 103 -104 30 -13 53 -32 57 -44 4 -12
12 -28 20 -36 11 -14 6 -27 -37 -93 -28 -42 -64 -87 -80 -99 -17 -13 -42 -34
-57 -47 -30 -27 -81 -32 -184 -17 -54 8 -56 8 -60 -14 -2 -17 12 -40 52 -83
36 -39 54 -66 52 -79 -3 -17 0 -20 20 -15 13 4 52 -2 86 -13 97 -30 313 -79
403 -91 98 -14 345 -7 361 9 8 8 4 23 -16 56 -44 75 -87 114 -134 122 -75 12
-82 46 -42 200 17 65 30 142 30 175 l0 59 -60 47 c-33 25 -60 51 -60 57 0 6
-28 21 -62 34 -156 57 -153 55 -156 87 l-2 30 16 -22 c19 -26 56 -30 77 -9 8
8 29 56 46 108 18 51 42 107 52 125 13 20 18 40 14 56 -4 14 -2 28 4 31 6 4
13 -4 17 -19 8 -32 14 -31 44 8 22 29 22 30 2 13 -12 -11 -24 -17 -26 -15 -2
2 -14 28 -26 58 l-21 54 23 26 c13 14 15 19 5 12 -20 -16 -18 -17 -46 29 -19
32 -19 35 -3 55 9 11 10 15 3 8 -7 -6 -20 -9 -27 -6 -12 4 -12 0 -4 -23 10
-26 8 -31 -16 -52 -33 -29 -80 -27 -77 3 2 21 -58 85 -79 85 -7 -1 -26 -6 -41
-13z m251 -152 c-1 -10 -14 -20 -28 -21 -32 -5 -75 -55 -75 -88 l0 -25 22 27
c45 54 47 56 51 44 2 -6 -1 -20 -7 -31 -6 -11 -11 -34 -11 -52 0 -17 -14 -56
-32 -87 l-31 -55 -23 44 c-25 48 -29 63 -15 54 11 -6 36 33 27 43 -4 3 -13 -3
-21 -14 -12 -16 -14 -16 -15 -3 0 9 -10 28 -21 43 l-21 27 20 22 c11 12 24 35
28 50 7 32 45 51 84 43 14 -2 32 -1 40 4 18 11 33 -2 28 -25z m21 -684 c16 -9
18 -25 17 -138 -1 -108 -4 -133 -21 -160 -16 -28 -25 -33 -56 -33 -61 0 -283
31 -294 41 -20 20 27 78 113 138 47 34 92 61 100 61 23 0 71 39 87 71 17 31
26 35 54 20z"/>
<path d="M2860 2159 c0 -5 5 -7 10 -4 6 3 10 8 10 11 0 2 -4 4 -10 4 -5 0 -10
-5 -10 -11z"/>
<path d="M2039 2053 c-13 -16 -12 -17 4 -4 9 7 17 15 17 17 0 8 -8 3 -21 -13z"/>
<path d="M3142 2056 c21 -8 49 -21 63 -30 28 -19 39 -21 29 -5 -9 15 -85 49
-109 48 -12 0 -4 -5 17 -13z"/>
<path d="M1984 2008 l-19 -23 23 19 c12 11 22 21 22 23 0 8 -8 2 -26 -19z"/>
<path d="M3077 1744 c-55 -131 -47 -180 20 -118 l28 26 -29 -21 c-48 -35 -50
-12 -11 89 46 121 40 140 -8 24z"/>
<path d="M2781 1734 c-43 -92 -65 -114 -111 -114 -28 0 -25 25 6 49 30 24 27
26 -10 10 -58 -27 -37 -71 31 -66 34 3 53 12 79 38 l34 33 0 -33 c0 -30 2 -33
25 -27 14 4 25 2 25 -4 0 -5 13 -10 30 -10 28 0 50 22 50 49 0 18 -50 12 -77
-9 -29 -22 -43 -19 -36 9 6 25 -11 35 -37 21 -26 -14 -26 -10 11 61 16 33 28
66 26 72 -2 7 -23 -29 -46 -79z m139 -82 c0 -13 -23 -32 -37 -32 -11 0 -11 5
-3 20 10 19 40 28 40 12z"/>
<path d="M2950 1650 c-14 -26 -5 -40 25 -40 24 0 59 36 49 52 -11 17 -63 8
-74 -12z m58 -2 c-6 -16 -36 -34 -44 -25 -9 9 15 37 33 37 8 0 13 -5 11 -12z"/>
<path d="M2538 1563 c7 -3 16 -2 19 1 4 3 -2 6 -13 5 -11 0 -14 -3 -6 -6z"/>
<path d="M478 1135 c-76 -19 -172 -64 -245 -113 -88 -60 -97 -76 -26 -47 194
78 449 68 636 -26 33 -17 129 -78 213 -135 234 -159 384 -225 588 -260 170
-30 384 -6 475 53 33 21 18 27 -99 43 -122 15 -368 78 -496 125 -54 21 -225
101 -379 179 -154 78 -311 153 -350 165 -89 30 -235 37 -317 16z"/>
<path d="M370 916 c-58 -20 -130 -53 -130 -59 0 -1 62 -2 138 -2 l137 0 115
-57 c177 -88 381 -146 479 -136 31 3 25 8 -120 99 -250 157 -307 179 -464 179
-68 0 -106 -6 -155 -24z"/>
</g>
</svg>
